<svg xmlns="http://www.w3.org/2000/svg" width="1200" height="1200" viewBox="0 0 1200 1200"><circle cx="388.6" cy="181.0" r="0.5" fill="#d6cbff" fill-opacity="0.75"/><circle cx="699.3" cy="1091.6" r="0.5" fill="#d6cbff" fill-opacity="0.54"/><circle cx="108.9" cy="509.4" r="0.5" fill="#f3efe6" fill-opacity="0.82"/><circle cx="699.6" cy="74.2" r="0.5" fill="#bfeaf2" fill-opacity="0.84"/><circle cx="1030.2" cy="347.5" r="0.5" fill="#f3efe6" fill-opacity="0.61"/><circle cx="818.4" cy="123.7" r="0.55" fill="#f3efe6" fill-opacity="0.5"/><circle cx="75.3" cy="71.5" r="0.7" fill="#f3efe6" fill-opacity="0.73"/><circle cx="1108.1" cy="433.9" r="0.55" fill="#f3efe6" fill-opacity="0.68"/><circle cx="689.3" cy="630.2" r="0.7" fill="#f3efe6" fill-opacity="0.46"/><circle cx="141.7" cy="501.7" r="0.55" fill="#f3efe6" fill-opacity="0.81"/><circle cx="1154.4" cy="93.1" r="0.6" fill="#f3efe6" fill-opacity="0.49"/><circle cx="596.0" cy="956.3" r="0.8780787988260711" fill="#f3efe6" fill-opacity="0.45"/><circle cx="78.0" cy="877.4" r="0.7" fill="#f3efe6" fill-opacity="0.46"/><circle cx="802.4" cy="27.1" r="0.55" fill="#f3efe6" fill-opacity="0.64"/><circle cx="261.8" cy="344.9" r="0.7" fill="#f3efe6" fill-opacity="0.52"/><circle cx="96.7" cy="539.0" r="0.55" fill="#f3efe6" fill-opacity="0.75"/><circle cx="334.1" cy="498.4" r="0.7" fill="#f3efe6" fill-opacity="0.83"/><circle cx="211.5" cy="278.3" r="0.7" fill="#f3efe6" fill-opacity="0.76"/><circle cx="338.3" cy="174.8" r="0.6" fill="#f3efe6" fill-opacity="0.82"/><circle cx="618.6" cy="741.1" r="0.5" fill="#f3efe6" fill-opacity="0.55"/><circle cx="1142.3" cy="816.7" r="0.7" fill="#d6cbff" fill-opacity="0.52"/><circle cx="761.1" cy="74.7" r="0.9126289556338493" fill="#f3efe6" fill-opacity="0.39"/><circle cx="63.1" cy="0.3" r="0.5" fill="#f3efe6" fill-opacity="0.82"/><circle cx="84.4" cy="249.5" r="0.6" fill="#f3efe6" fill-opacity="0.83"/><circle cx="569.0" cy="138.4" r="0.7" fill="#f3efe6" fill-opacity="0.56"/><circle cx="172.9" cy="899.6" r="0.7" fill="#f3efe6" fill-opacity="0.76"/><circle cx="27.7" cy="1141.2" r="0.55" fill="#f3efe6" fill-opacity="0.68"/><circle cx="909.8" cy="357.7" r="0.5" fill="#f3efe6" fill-opacity="0.68"/><circle cx="440.0" cy="200.5" r="0.6" fill="#f3efe6" fill-opacity="0.65"/><circle cx="946.1" cy="910.0" r="0.55" fill="#f3efe6" fill-opacity="0.75"/><circle cx="272.1" cy="621.2" r="0.5" fill="#f3efe6" fill-opacity="0.84"/><circle cx="566.7" cy="232.4" r="0.6" fill="#f3efe6" fill-opacity="0.55"/><circle cx="1185.6" cy="1146.0" r="0.55" fill="#f3efe6" fill-opacity="0.36"/><circle cx="405.3" cy="579.2" r="0.5" fill="#f3efe6" fill-opacity="0.56"/><circle cx="959.6" cy="101.7" r="0.7" fill="#f3efe6" fill-opacity="0.73"/><circle cx="573.6" cy="214.2" r="0.6" fill="#f3efe6" fill-opacity="0.35"/><circle cx="866.2" cy="555.8" r="0.5" fill="#f3efe6" fill-opacity="0.7"/><circle cx="152.4" cy="181.4" r="0.55" fill="#f3efe6" fill-opacity="0.64"/><circle cx="569.2" cy="1125.0" r="0.55" fill="#f3efe6" fill-opacity="0.31"/><circle cx="871.6" cy="123.3" r="0.55" fill="#f3efe6" fill-opacity="0.54"/><circle cx="991.4" cy="253.3" r="0.6" fill="#f3efe6" fill-opacity="0.58"/><circle cx="391.2" cy="653.2" r="0.5" fill="#f3efe6" fill-opacity="0.8"/><circle cx="549.8" cy="700.0" r="0.7" fill="#f3efe6" fill-opacity="0.75"/><circle cx="156.9" cy="182.2" r="0.7" fill="#f3efe6" fill-opacity="0.73"/><circle cx="931.2" cy="179.8" r="0.5" fill="#f3efe6" fill-opacity="0.61"/><circle cx="622.0" cy="666.5" r="0.5" fill="#bfeaf2" fill-opacity="0.79"/><circle cx="229.6" cy="50.6" r="0.9856527780631096" fill="#f3efe6" fill-opacity="0.32"/><circle cx="76.0" cy="390.7" r="0.55" fill="#f3efe6" fill-opacity="0.68"/><circle cx="639.9" cy="573.6" r="0.6" fill="#f3efe6" fill-opacity="0.81"/><circle cx="243.1" cy="537.0" r="0.7" fill="#d6cbff" fill-opacity="0.54"/><circle cx="288.8" cy="87.7" r="0.5" fill="#f3efe6" fill-opacity="0.79"/><circle cx="859.3" cy="792.3" r="0.55" fill="#f3efe6" fill-opacity="0.83"/><circle cx="1143.0" cy="477.9" r="0.55" fill="#f3efe6" fill-opacity="0.39"/><circle cx="618.7" cy="406.9" r="0.6" fill="#f3efe6" fill-opacity="0.35"/><circle cx="405.6" cy="550.4" r="0.7" fill="#f3efe6" fill-opacity="0.48"/><circle cx="614.7" cy="77.1" r="0.55" fill="#d6cbff" fill-opacity="0.83"/><circle cx="318.7" cy="47.5" r="0.6" fill="#f3efe6" fill-opacity="0.72"/><circle cx="1019.5" cy="811.2" r="0.7" fill="#f3efe6" fill-opacity="0.38"/><circle cx="684.7" cy="840.5" r="0.8672579537322839" fill="#f3efe6" fill-opacity="0.68"/><circle cx="86.9" cy="1126.0" r="0.6" fill="#f3efe6" fill-opacity="0.35"/><circle cx="79.9" cy="1035.3" r="0.6" fill="#f3efe6" fill-opacity="0.85"/><circle cx="1098.5" cy="746.0" r="1.062861015435538" fill="#f3efe6" fill-opacity="0.82"/><circle cx="314.3" cy="217.4" r="0.6" fill="#f3efe6" fill-opacity="0.59"/><circle cx="534.8" cy="806.6" r="0.5" fill="#bfeaf2" fill-opacity="0.85"/><circle cx="22.1" cy="606.8" r="0.7" fill="#f3efe6" fill-opacity="0.44"/><circle cx="790.0" cy="780.1" r="0.7" fill="#f3efe6" fill-opacity="0.83"/><circle cx="258.2" cy="275.5" r="0.55" fill="#f3efe6" fill-opacity="0.52"/><circle cx="65.3" cy="155.8" r="1.0722667594548783" fill="#f3efe6" fill-opacity="0.44"/><circle cx="101.4" cy="1009.5" r="0.6" fill="#f3efe6" fill-opacity="0.63"/><circle cx="54.3" cy="222.4" r="0.5" fill="#f3efe6" fill-opacity="0.44"/><circle cx="1167.1" cy="656.5" r="0.6" fill="#f3efe6" fill-opacity="0.42"/><circle cx="402.4" cy="100.7" r="0.55" fill="#f3efe6" fill-opacity="0.44"/><circle cx="109.0" cy="980.5" r="0.5" fill="#f3efe6" fill-opacity="0.52"/><circle cx="755.6" cy="101.4" r="0.55" fill="#f3efe6" fill-opacity="0.66"/><circle cx="1054.9" cy="467.4" r="0.7" fill="#f3efe6" fill-opacity="0.38"/><circle cx="771.9" cy="52.5" r="0.7" fill="#f3efe6" fill-opacity="0.7"/><circle cx="167.2" cy="628.5" r="0.5" fill="#f3efe6" fill-opacity="0.75"/><circle cx="1071.4" cy="819.5" r="0.55" fill="#bfeaf2" fill-opacity="0.35"/><circle cx="764.5" cy="1151.4" r="0.7" fill="#f3efe6" fill-opacity="0.61"/><circle cx="751.5" cy="816.8" r="0.5" fill="#d6cbff" fill-opacity="0.55"/><circle cx="1119.0" cy="1077.4" r="1.0077970454083018" fill="#f3efe6" fill-opacity="0.71"/><circle cx="971.1" cy="1015.4" r="0.55" fill="#f3efe6" fill-opacity="0.43"/><circle cx="552.4" cy="1014.6" r="1.1231399983548296" fill="#bfeaf2" fill-opacity="0.46"/><circle cx="759.4" cy="237.9" r="0.6" fill="#f3efe6" fill-opacity="0.44"/><circle cx="365.3" cy="681.3" r="0.8681983042190925" fill="#f3efe6" fill-opacity="0.45"/><circle cx="830.6" cy="810.8" r="0.6" fill="#f3efe6" fill-opacity="0.56"/><circle cx="142.2" cy="1072.4" r="0.5" fill="#bfeaf2" fill-opacity="0.81"/><circle cx="550.8" cy="983.9" r="0.7" fill="#f3efe6" fill-opacity="0.85"/><circle cx="1099.9" cy="1116.6" r="0.8770909282753035" fill="#f3efe6" fill-opacity="0.71"/><circle cx="431.5" cy="724.0" r="0.6" fill="#f3efe6" fill-opacity="0.79"/><circle cx="277.7" cy="1077.2" r="0.5" fill="#f3efe6" fill-opacity="0.39"/><circle cx="817.9" cy="486.5" r="0.7" fill="#f3efe6" fill-opacity="0.49"/><circle cx="1008.3" cy="2.1" r="0.7" fill="#f3efe6" fill-opacity="0.37"/><circle cx="855.6" cy="1081.9" r="0.6" fill="#f3efe6" fill-opacity="0.34"/><circle cx="1044.0" cy="91.7" r="0.6" fill="#f3efe6" fill-opacity="0.77"/><circle cx="61.9" cy="794.4" r="0.55" fill="#f3efe6" fill-opacity="0.44"/><circle cx="613.2" cy="227.8" r="0.7" fill="#f3efe6" fill-opacity="0.79"/><circle cx="757.1" cy="1096.1" r="0.55" fill="#bfeaf2" fill-opacity="0.7"/><circle cx="878.8" cy="541.0" r="0.6" fill="#f3efe6" fill-opacity="0.57"/><circle cx="660.1" cy="204.9" r="0.6" fill="#f3efe6" fill-opacity="0.46"/><circle cx="1171.6" cy="312.2" r="0.6" fill="#f3efe6" fill-opacity="0.57"/><circle cx="143.7" cy="771.8" r="1.0001814378186165" fill="#f3efe6" fill-opacity="0.75"/><circle cx="543.6" cy="399.4" r="0.7" fill="#f3efe6" fill-opacity="0.38"/><circle cx="108.9" cy="410.3" r="0.9217379742152363" fill="#f3efe6" fill-opacity="0.44"/><circle cx="1064.7" cy="899.6" r="0.7" fill="#f3efe6" fill-opacity="0.71"/><circle cx="324.3" cy="902.5" r="0.6" fill="#f3efe6" fill-opacity="0.37"/><circle cx="755.6" cy="1035.4" r="0.6" fill="#f3efe6" fill-opacity="0.79"/><circle cx="775.0" cy="518.2" r="0.5" fill="#f3efe6" fill-opacity="0.37"/><circle cx="916.4" cy="965.1" r="0.7" fill="#f3efe6" fill-opacity="0.3"/><circle cx="1112.2" cy="990.7" r="0.7" fill="#d6cbff" fill-opacity="0.44"/><circle cx="185.3" cy="626.8" r="0.7" fill="#f3efe6" fill-opacity="0.35"/><circle cx="1.6" cy="150.8" r="0.5" fill="#f3efe6" fill-opacity="0.66"/><circle cx="153.6" cy="302.2" r="0.5" fill="#f3efe6" fill-opacity="0.35"/><circle cx="1132.2" cy="230.0" r="0.5" fill="#f3efe6" fill-opacity="0.31"/><circle cx="552.8" cy="1150.7" r="0.55" fill="#f3efe6" fill-opacity="0.56"/><circle cx="296.5" cy="1152.7" r="0.6" fill="#f3efe6" fill-opacity="0.33"/><circle cx="1061.8" cy="776.6" r="0.9183521531537661" fill="#f3efe6" fill-opacity="0.53"/><circle cx="591.5" cy="835.0" r="0.6" fill="#f3efe6" fill-opacity="0.68"/><circle cx="956.5" cy="887.0" r="0.55" fill="#f3efe6" fill-opacity="0.57"/><circle cx="919.0" cy="232.7" r="0.6" fill="#f3efe6" fill-opacity="0.72"/><circle cx="1142.3" cy="594.9" r="0.55" fill="#f3efe6" fill-opacity="0.57"/><circle cx="67.7" cy="713.8" r="0.5" fill="#f3efe6" fill-opacity="0.42"/><circle cx="170.3" cy="62.2" r="0.9679965088881" fill="#f3efe6" fill-opacity="0.79"/><circle cx="879.3" cy="1197.0" r="0.6" fill="#f3efe6" fill-opacity="0.4"/><circle cx="629.8" cy="561.1" r="0.7" fill="#f3efe6" fill-opacity="0.76"/><circle cx="530.9" cy="130.7" r="0.874228891025782" fill="#f3efe6" fill-opacity="0.53"/><circle cx="673.4" cy="910.6" r="0.6" fill="#f3efe6" fill-opacity="0.75"/><circle cx="59.1" cy="568.2" r="0.7" fill="#f3efe6" fill-opacity="0.41"/><circle cx="1076.4" cy="36.3" r="0.7" fill="#bfeaf2" fill-opacity="0.32"/><circle cx="75.1" cy="1104.1" r="0.5" fill="#f3efe6" fill-opacity="0.79"/><circle cx="326.8" cy="1149.2" r="0.6" fill="#f3efe6" fill-opacity="0.71"/><circle cx="1109.1" cy="356.9" r="0.5" fill="#f3efe6" fill-opacity="0.31"/><circle cx="570.2" cy="1148.1" r="0.7" fill="#f3efe6" fill-opacity="0.73"/><circle cx="977.8" cy="159.2" r="0.5" fill="#f3efe6" fill-opacity="0.74"/><circle cx="987.3" cy="927.4" r="0.6" fill="#f3efe6" fill-opacity="0.77"/><circle cx="940.6" cy="714.9" r="0.7" fill="#f3efe6" fill-opacity="0.71"/><circle cx="77.7" cy="40.6" r="0.6" fill="#f3efe6" fill-opacity="0.39"/><circle cx="126.3" cy="86.6" r="0.55" fill="#f3efe6" fill-opacity="0.35"/><circle cx="851.7" cy="536.4" r="0.7" fill="#f3efe6" fill-opacity="0.55"/><circle cx="281.9" cy="646.3" r="0.5" fill="#f3efe6" fill-opacity="0.73"/><circle cx="335.3" cy="321.2" r="0.6" fill="#f3efe6" fill-opacity="0.41"/><circle cx="294.4" cy="184.0" r="0.55" fill="#f3efe6" fill-opacity="0.48"/><circle cx="1190.9" cy="608.8" r="0.5" fill="#f3efe6" fill-opacity="0.66"/><circle cx="122.8" cy="569.7" r="0.7" fill="#bfeaf2" fill-opacity="0.8"/><circle cx="352.4" cy="143.1" r="0.55" fill="#f3efe6" fill-opacity="0.81"/><circle cx="1039.4" cy="538.9" r="0.5" fill="#f3efe6" fill-opacity="0.36"/><circle cx="743.9" cy="261.2" r="0.55" fill="#f3efe6" fill-opacity="0.32"/><circle cx="45.9" cy="878.7" r="0.5" fill="#f3efe6" fill-opacity="0.75"/><circle cx="446.2" cy="745.2" r="0.8594399760558035" fill="#f3efe6" fill-opacity="0.57"/><circle cx="489.8" cy="955.0" r="0.55" fill="#d6cbff" fill-opacity="0.65"/><circle cx="196.4" cy="834.5" r="0.6" fill="#f3efe6" fill-opacity="0.67"/><circle cx="61.6" cy="894.4" r="0.7" fill="#f3efe6" fill-opacity="0.53"/><circle cx="1195.9" cy="436.5" r="0.7" fill="#bfeaf2" fill-opacity="0.41"/><circle cx="1082.0" cy="508.5" r="0.7" fill="#f3efe6" fill-opacity="0.62"/><circle cx="927.7" cy="156.0" r="0.8927490420058369" fill="#f3efe6" fill-opacity="0.74"/><circle cx="687.4" cy="1112.7" r="0.55" fill="#f3efe6" fill-opacity="0.38"/><circle cx="625.4" cy="1110.6" r="0.9971528949295486" fill="#f3efe6" fill-opacity="0.74"/><circle cx="236.8" cy="152.0" r="0.7" fill="#f3efe6" fill-opacity="0.47"/><circle cx="763.6" cy="103.6" r="0.55" fill="#f3efe6" fill-opacity="0.65"/><circle cx="745.3" cy="737.7" r="0.7" fill="#f3efe6" fill-opacity="0.4"/><circle cx="479.7" cy="621.5" r="0.5" fill="#f3efe6" fill-opacity="0.38"/><circle cx="978.8" cy="231.1" r="0.5" fill="#f3efe6" fill-opacity="0.67"/><circle cx="467.8" cy="546.9" r="0.6" fill="#f3efe6" fill-opacity="0.66"/><circle cx="299.1" cy="467.1" r="0.7" fill="#bfeaf2" fill-opacity="0.4"/><circle cx="1183.4" cy="558.3" r="0.7" fill="#f3efe6" fill-opacity="0.76"/><circle cx="480.4" cy="80.5" r="0.6" fill="#f3efe6" fill-opacity="0.35"/><circle cx="612.2" cy="48.9" r="0.5" fill="#f3efe6" fill-opacity="0.81"/><circle cx="864.5" cy="96.0" r="0.7" fill="#f3efe6" fill-opacity="0.66"/><circle cx="31.0" cy="79.7" r="0.5" fill="#f3efe6" fill-opacity="0.41"/><circle cx="590.2" cy="1148.0" r="0.55" fill="#f3efe6" fill-opacity="0.68"/><circle cx="265.4" cy="999.6" r="0.6" fill="#f3efe6" fill-opacity="0.39"/><circle cx="330.0" cy="978.8" r="0.7" fill="#f3efe6" fill-opacity="0.41"/><circle cx="607.2" cy="382.9" r="0.9046289162415239" fill="#f3efe6" fill-opacity="0.39"/><circle cx="815.6" cy="1074.5" r="0.6" fill="#f3efe6" fill-opacity="0.36"/><circle cx="763.6" cy="431.7" r="0.5" fill="#f3efe6" fill-opacity="0.44"/><circle cx="1027.9" cy="885.5" r="0.7" fill="#f3efe6" fill-opacity="0.84"/><circle cx="432.3" cy="917.6" r="0.55" fill="#f3efe6" fill-opacity="0.64"/><circle cx="355.7" cy="619.3" r="0.6" fill="#f3efe6" fill-opacity="0.7"/><circle cx="266.0" cy="349.2" r="0.7" fill="#f3efe6" fill-opacity="0.58"/><circle cx="158.4" cy="272.7" r="0.5" fill="#f3efe6" fill-opacity="0.33"/><circle cx="364.5" cy="627.7" r="0.7" fill="#f3efe6" fill-opacity="0.62"/><circle cx="245.0" cy="748.7" r="0.55" fill="#f3efe6" fill-opacity="0.31"/><circle cx="849.0" cy="541.0" r="0.8934074890716797" fill="#f3efe6" fill-opacity="0.67"/><circle cx="973.9" cy="1160.6" r="1.0962642056398044" fill="#f3efe6" fill-opacity="0.79"/><circle cx="694.2" cy="722.3" r="0.7" fill="#f3efe6" fill-opacity="0.44"/><circle cx="52.8" cy="637.8" r="0.55" fill="#f3efe6" fill-opacity="0.39"/><circle cx="125.9" cy="735.2" r="0.55" fill="#f3efe6" fill-opacity="0.38"/><circle cx="729.7" cy="608.3" r="0.55" fill="#d6cbff" fill-opacity="0.58"/><circle cx="751.2" cy="1192.9" r="0.7" fill="#bfeaf2" fill-opacity="0.69"/><circle cx="1013.3" cy="894.2" r="0.7" fill="#f3efe6" fill-opacity="0.4"/><circle cx="313.7" cy="772.8" r="0.6" fill="#f3efe6" fill-opacity="0.69"/><circle cx="664.5" cy="523.3" r="0.6" fill="#f3efe6" fill-opacity="0.46"/><circle cx="1073.0" cy="102.5" r="0.55" fill="#f3efe6" fill-opacity="0.44"/><circle cx="892.7" cy="1133.6" r="0.6" fill="#f3efe6" fill-opacity="0.41"/><circle cx="721.5" cy="455.3" r="0.7" fill="#f3efe6" fill-opacity="0.56"/><circle cx="7.7" cy="31.8" r="0.55" fill="#f3efe6" fill-opacity="0.61"/><circle cx="254.4" cy="747.1" r="1.123236918832837" fill="#bfeaf2" fill-opacity="0.38"/><circle cx="128.0" cy="1114.7" r="0.55" fill="#bfeaf2" fill-opacity="0.69"/><circle cx="166.1" cy="772.3" r="0.870348307647076" fill="#f3efe6" fill-opacity="0.33"/><circle cx="914.1" cy="239.2" r="0.5" fill="#f3efe6" fill-opacity="0.78"/><circle cx="853.5" cy="460.6" r="0.55" fill="#bfeaf2" fill-opacity="0.36"/><circle cx="1017.3" cy="974.4" r="0.6" fill="#f3efe6" fill-opacity="0.56"/><circle cx="950.4" cy="775.6" r="0.6" fill="#bfeaf2" fill-opacity="0.53"/><circle cx="308.0" cy="339.1" r="0.6" fill="#f3efe6" fill-opacity="0.8"/><circle cx="722.4" cy="571.3" r="0.5" fill="#bfeaf2" fill-opacity="0.73"/><circle cx="622.3" cy="118.0" r="0.5" fill="#f3efe6" fill-opacity="0.6"/><circle cx="1034.7" cy="109.1" r="0.55" fill="#f3efe6" fill-opacity="0.54"/><circle cx="346.0" cy="900.6" r="0.954341101253382" fill="#f3efe6" fill-opacity="0.35"/><circle cx="990.4" cy="1160.6" r="0.6" fill="#f3efe6" fill-opacity="0.62"/><circle cx="978.3" cy="1125.9" r="0.55" fill="#f3efe6" fill-opacity="0.36"/></svg>